<svg width="110" height="64" viewBox="0 0 110 64" fill="none" xmlns="http://www.w3.org/2000/svg">
<path d="M1.91926 19.2102C1.67145 19.2889 1.40756 19.3 1.15418 19.2423C0.900797 19.1847 0.66687 19.0605 0.475963 18.882C0.285056 18.7036 0.143911 18.4774 0.0667464 18.2261C-0.0104187 17.9748 -0.0208788 17.7073 0.0364206 17.4506C0.896147 13.8257 4.16523 4.96086 16.0746 1.23232C21.2333 -0.382751 26.1806 -0.410322 30.7729 1.14976C34.5509 2.42789 37.0589 4.428 38.2586 5.39472C38.5634 5.63912 38.7599 5.99624 38.8049 6.3875C38.8499 6.77876 38.7398 7.17211 38.4986 7.48104C38.4956 7.48486 38.4926 7.48867 38.4896 7.49247C38.2419 7.80234 37.8841 8.0012 37.4931 8.04617C37.1022 8.09115 36.7095 7.97864 36.3996 7.73291C34.226 5.99723 27.6301 0.724269 16.9399 4.07112C6.50153 7.33912 3.66606 14.9832 2.93062 18.1106C2.87477 18.3689 2.75142 18.6073 2.5735 18.8007C2.39558 18.9942 2.16961 19.1356 1.91926 19.2102Z" fill="#3767EC"/>
<path d="M34.3793 39.7421C34.261 39.7808 34.1383 39.8042 34.0142 39.8116C24.7102 40.3195 18.7907 32.4857 18.5476 32.1591L18.5026 32.0837C18.3542 31.8505 14.7724 26.3274 16.3493 21.941C17.0735 19.9357 18.6753 18.5282 21.1237 17.7616C23.4008 17.0487 25.2641 17.2596 26.8501 18.4074C28.1506 19.3426 28.984 20.7372 29.7918 22.0839C31.4719 24.8801 32.5015 26.3028 35.6949 25.482C37.097 25.1213 37.7517 24.0102 38.0508 23.1448C38.8561 20.7897 38.1424 17.579 36.2542 15.15C33.8147 11.9987 26.9878 6.76445 18.5646 9.40156C14.9676 10.5277 12.0238 12.7469 10.0524 15.8026C8.41929 18.3386 7.46988 21.4882 7.44907 24.4255C7.4163 29.8945 11.8388 37.0895 11.8808 37.1547C11.9826 37.3198 12.0513 37.5035 12.0831 37.6955C12.1148 37.8875 12.109 38.084 12.0658 38.2737C12.0226 38.4634 11.943 38.6426 11.8315 38.8011C11.72 38.9597 11.5788 39.0944 11.4159 39.1976C11.4114 39.2004 11.4069 39.2033 11.4023 39.2061C11.0686 39.417 10.6664 39.4865 10.2827 39.3994C9.89886 39.3124 9.56426 39.0758 9.35109 38.7409C9.15148 38.4119 4.42916 30.7402 4.46721 24.4194C4.52017 17.5682 8.62812 9.39152 17.6962 6.55253C21.8876 5.24028 26.2924 5.46084 30.4376 7.1833C33.6504 8.52649 36.6239 10.75 38.5897 13.289C41.1007 16.5298 41.9853 20.772 40.8422 24.083C40.0802 26.2903 38.5025 27.8133 36.4059 28.3578C30.9415 29.7666 28.8008 26.2197 27.2396 23.6323C25.6365 20.9798 24.7497 19.7361 21.9789 20.6036C20.4575 21.0799 19.5202 21.8432 19.126 22.9398C18.5896 24.4388 19.098 26.3603 19.6189 27.7073C19.6243 27.7214 19.6297 27.7354 19.6351 27.7494C20.303 29.4615 21.3452 30.9979 22.6835 32.2428C24.8272 34.2492 28.8069 37.1095 33.8792 36.8337C34.2669 36.8093 34.6484 36.942 34.9396 37.2026C35.2308 37.4632 35.408 37.8304 35.4321 38.2234C35.4324 38.2282 35.4326 38.2329 35.4329 38.2377C35.4448 38.5709 35.348 38.8988 35.1576 39.1708C34.9672 39.4427 34.6936 39.6435 34.3793 39.7421Z" fill="#3767EC"/>
<path d="M23.0969 42.5583C22.903 42.6192 22.6989 42.6395 22.497 42.6181C22.2951 42.5968 22.0995 42.5341 21.9222 42.4339C17.3333 39.7989 14.1119 36.2548 11.7921 31.2874L11.7828 31.2568C10.3208 27.9448 9.44071 22.8846 11.3821 18.6078C12.8153 15.4521 15.5055 13.234 19.3644 12.0259C23.9287 10.5969 28.1786 11.649 31.6666 15.0537C33.2529 16.6252 34.5428 18.4768 35.4731 20.5177C35.6214 20.8848 35.6211 21.2964 35.4723 21.6634C35.3235 22.0304 35.0382 22.3233 34.678 22.4787C34.3177 22.6341 33.9117 22.6395 33.5475 22.4938C33.1834 22.3482 32.8905 22.063 32.7321 21.7002C31.9445 19.9968 30.8569 18.4534 29.5228 17.1455C26.8343 14.5532 23.7089 13.7866 20.2227 14.8781C17.2101 15.8212 15.1357 17.4886 14.0737 19.8346C12.5423 23.2112 13.3308 27.4275 14.4749 30.0224C16.5203 34.4157 19.3575 37.532 23.3963 39.8471C23.5632 39.9425 23.7098 40.0702 23.828 40.223C23.9461 40.3758 24.0334 40.5507 24.0848 40.7377C24.1363 40.9247 24.1509 41.1201 24.1278 41.3128C24.1047 41.5055 24.0444 41.6918 23.9503 41.8608C23.9466 41.8675 23.9428 41.8742 23.9389 41.8809C23.7508 42.2046 23.4507 42.4461 23.0969 42.5583Z" fill="#3767EC"/>
<path d="M23.5802 27.7085C24.6285 27.7085 25.4783 26.8472 25.4783 25.7847C25.4783 24.7223 24.6285 23.861 23.5802 23.861C22.5318 23.861 21.682 24.7223 21.682 25.7847C21.682 26.8472 22.5318 27.7085 23.5802 27.7085Z" fill="#3767EC"/>
</svg>
