<svg width="20" height="20" xmlns="http://www.w3.org/2000/svg" xmlns:xlink="http://www.w3.org/1999/xlink" xml:space="preserve" overflow="hidden"><g transform="translate(-630 -350)"><path d="M650 360C650 365.523 645.523 370 640 370 634.477 370 630 365.523 630 360 630 354.477 634.477 350 640 350 645.523 350 650 354.477 650 360Z" stroke="#4366E4" fill="#FFFFFF"/><path d="M641.089 356.185C640.872 356.432 640.872 356.832 641.089 357.078L643.103 359.368 635.556 359.368C635.249 359.368 635 359.651 635 360 635 360.349 635.249 360.632 635.556 360.632L643.103 360.632 641.089 362.922C640.872 363.168 640.872 363.568 641.089 363.815 641.306 364.062 641.657 364.062 641.874 363.815L644.837 360.447C645.054 360.2 645.054 359.8 644.837 359.553L641.874 356.185C641.657 355.938 641.306 355.938 641.089 356.185Z" stroke="#4366E4" fill="#FF6452" fill-rule="evenodd"/></g></svg>