<svg width="24" height="25" viewBox="0 0 24 25" fill="none" xmlns="http://www.w3.org/2000/svg">
<path d="M10.486 17.1807C10.3547 17.181 10.2247 17.1553 10.1034 17.1052C9.98204 17.0551 9.87181 16.9815 9.77899 16.8887L5.53699 12.6457C5.44141 12.5535 5.36516 12.4432 5.31266 12.3212C5.26017 12.1993 5.23249 12.0681 5.23125 11.9353C5.23 11.8025 5.25521 11.6708 5.3054 11.5479C5.3556 11.425 5.42977 11.3133 5.52359 11.2193C5.61742 11.1254 5.72902 11.051 5.85188 11.0007C5.97474 10.9503 6.1064 10.9249 6.23918 10.9259C6.37195 10.927 6.50319 10.9545 6.62523 11.0068C6.74727 11.0591 6.85767 11.1352 6.94999 11.2307L10.485 14.7657L16.85 8.40268C17.0375 8.21504 17.2919 8.10958 17.5571 8.10948C17.8224 8.10939 18.0768 8.21468 18.2645 8.40218C18.4521 8.58969 18.5576 8.84406 18.5577 9.10933C18.5578 9.3746 18.4525 9.62904 18.265 9.81668L11.193 16.8887C11.1002 16.9815 10.9899 17.0551 10.8686 17.1052C10.7473 17.1553 10.6173 17.181 10.486 17.1807V17.1807Z" fill="#2FAB73"/>
</svg>
