<?xml version="1.0" standalone="no"?>
<!DOCTYPE svg PUBLIC "-//W3C//DTD SVG 20010904//EN"
 "http://www.w3.org/TR/2001/REC-SVG-20010904/DTD/svg10.dtd">
<svg version="1.0" xmlns="http://www.w3.org/2000/svg"
 width="50.000000pt" height="50.000000pt" viewBox="0 0 50.000000 50.000000"
 preserveAspectRatio="xMidYMid meet">

<g transform="translate(0.000000,50.000000) scale(0.100000,-0.100000)"
fill="#000000" stroke="none">
<path d="M134 359 c-3 -6 15 -33 42 -60 l48 -49 -49 -50 c-38 -39 -47 -52 -37
-62 10 -10 23 -1 62 37 l50 49 50 -49 c39 -38 52 -47 62 -37 10 10 1 23 -37
62 l-49 50 49 50 c38 39 47 52 37 62 -10 10 -23 1 -62 -37 l-50 -49 -48 47
c-51 50 -57 53 -68 36z"/>
</g>
</svg>
