<svg width="526" height="460" viewBox="0 0 526 460" fill="none" xmlns="http://www.w3.org/2000/svg">
<g clip-path="url(#clip0_742_4)">
<path d="M158.145 453.157L166.122 453.157L169.917 422.363L158.143 422.364L158.145 453.157Z" fill="#FFB6B6"/>
<path d="M185.475 452.976C185.723 453.395 185.855 454.746 185.855 455.233C185.855 456.729 184.642 457.943 183.147 457.943H158.443C157.423 457.943 156.596 457.115 156.596 456.094V455.065C156.596 455.065 155.374 451.971 157.89 448.158C157.89 448.158 161.017 451.144 165.69 446.467L167.068 443.969L177.042 451.27L182.571 451.951C183.78 452.1 184.853 451.927 185.475 452.976Z" fill="#2F2E41"/>
<path d="M73.936 443.17L81.2255 446.413L97.1926 419.817L86.4343 415.031L73.936 443.17Z" fill="#FFB6B6"/>
<path d="M98.983 454.117C99.04 454.6 98.6113 455.888 98.4136 456.333C97.8062 457.7 96.2062 458.316 94.8398 457.708L72.2663 447.664C71.3342 447.249 70.9145 446.157 71.3289 445.224L71.7467 444.284C71.7467 444.284 71.8858 440.96 75.7327 438.498C75.7327 438.498 77.3782 442.498 83.5462 440.125L85.8194 438.402L91.9701 449.128L96.7455 451.999C97.7903 452.627 98.8402 452.905 98.983 454.117Z" fill="#2F2E41"/>
<path d="M175.481 260.474L182.574 275.38L170.517 430.118H155.438L149.24 328.616L95.1254 430.118H76.6294L104.558 357.718L123.707 263.313L175.481 260.474Z" fill="#2F2E41"/>
<path d="M137.506 164.88H156.208L163.067 175.652L178.538 183.057L175.175 229.507L176.862 263.375L174.55 263.308C158.045 262.826 141.548 265.512 126.231 271.685C122.301 273.268 118.182 274.152 114.636 273.264C114.636 273.264 115.982 267.879 117.327 266.533C118.672 265.186 119.345 264.073 118.672 263.283C117.999 262.493 116.654 261.82 117.999 260.474C119.345 259.127 119.345 257.431 119.345 257.431L123.381 227.487L115.309 185.076L132.125 175.652L137.506 164.88Z" fill="#6C63FF"/>
<path d="M105.369 223.604L105.879 263.33L115.755 298.743L123.651 295.796L120.145 263.336L120.606 219.409L105.369 223.604Z" fill="#FFB6B6"/>
<path d="M115.789 304.454C114.863 299.362 116.561 294.787 119.582 294.237C122.603 293.686 125.803 297.368 126.729 302.46C127.656 307.552 125.958 312.127 122.937 312.677C119.916 313.228 116.716 309.546 115.789 304.454Z" fill="#FFB6B6"/>
<path d="M119.345 183.057C119.345 183.057 108.201 184.785 108.055 194.355C107.91 203.926 97.1473 219.409 103.874 231.527L121.363 234.219L130.78 199.887L120.017 181.71" fill="#6C63FF"/>
<path d="M170.209 216.608L192.417 249.538L220.091 273.72L225.075 266.92L204.347 241.708L180.647 204.733L170.209 216.608Z" fill="#FFB6B6"/>
<path d="M223.25 278.475C219.684 274.727 218.595 269.97 220.819 267.851C223.042 265.732 227.736 267.052 231.303 270.8C234.869 274.549 235.958 279.305 233.734 281.425C231.51 283.544 226.816 282.223 223.25 278.475Z" fill="#FFB6B6"/>
<path d="M159.661 175.035C159.661 175.035 151.292 182.6 156.418 190.681C161.544 198.761 161.036 217.616 173.303 224.052L189.4 216.699C188.044 203.423 187.253 189.659 178.448 182.825L159.485 173.54" fill="#6C63FF"/>
<path d="M149.759 162.106C140.517 162.106 133.025 154.608 133.025 145.359C133.025 136.109 140.517 128.611 149.759 128.611C159.001 128.611 166.493 136.109 166.493 145.359C166.493 154.608 159.001 162.106 149.759 162.106Z" fill="#FFB6B6"/>
<path d="M137.469 159.119C136.547 159.276 135.465 157.04 134.431 154.863C132.266 150.304 130.89 147.406 130.785 143.309C130.696 139.818 131.665 140.734 132.608 132.972C132.919 130.412 137.289 130.417 138.179 129.201C139.681 127.148 137.376 126.301 141.114 125.067C148.116 122.757 151.282 126.346 155.729 126.655C155.841 126.663 158.045 128.821 159.277 128.932C161.434 129.128 164.545 128.792 165.94 125.503C167.245 122.427 168.109 131.414 166.943 132.526C165.953 133.47 164.245 135.84 164.202 136.013C164.153 136.208 168.262 131.652 168.948 133.529C169.442 134.88 167.888 141.832 166.632 142.093C165.582 142.312 163.015 138.849 163.594 140.269C164.938 143.563 156.86 145.664 147.19 139.053C146.847 138.818 147.171 139.192 145.975 142.093C144.466 145.752 144.126 145.95 144.152 146.958C144.209 149.139 145.846 149.781 145.367 151.214C144.98 152.375 143.466 153.273 142.329 153.038C141.047 152.773 140.827 151.186 139.899 151.214C139.104 151.238 138.16 152.437 138.076 153.646C137.899 156.195 141.669 156.896 142.329 160.335C142.702 162.276 138.316 158.974 137.469 159.119Z" fill="#2F2E41"/>
<path d="M269.94 458.705H413.729C435.295 458.705 452.841 441.146 452.841 419.561V39.1438C452.841 17.56 435.295 0 413.729 0H269.94C248.374 0 230.829 17.56 230.829 39.1438C228.152 191.908 223.588 362.979 230.829 419.561C230.829 441.146 248.374 458.705 269.94 458.705Z" fill="#3F3D56"/>
<path d="M228.823 139.93C229.736 139.93 230.478 140.673 230.478 141.586V194.577C230.478 195.491 229.736 196.233 228.823 196.233C227.911 196.233 227.169 195.491 227.169 194.577V141.586C227.169 140.673 227.911 139.93 228.823 139.93Z" fill="#3F3D56"/>
<path d="M234.551 39.1442V419.555C234.551 438.342 249.162 453.709 267.636 454.902H267.644C267.917 454.918 268.19 454.935 268.471 454.943C268.959 454.968 269.447 454.976 269.944 454.976C269.944 454.976 271.764 454.844 275.09 454.595C278.449 454.347 283.338 453.974 289.435 453.486C291.264 453.345 293.192 453.188 295.227 453.022C299.281 452.691 303.732 452.327 308.505 451.913C310.408 451.755 312.377 451.581 314.387 451.407C324.663 450.521 336.171 449.487 348.307 448.311C350.359 448.12 352.428 447.922 354.512 447.715C355.058 447.657 449.118 423.993 449.118 419.555V39.1442C449.118 19.5789 433.274 3.7229 413.725 3.7229H392.595C389.22 3.7229 386.506 6.3559 386.217 9.72581C386.192 9.94939 386.167 10.1729 386.126 10.3965C385.513 13.783 382.411 16.1427 378.969 16.1427H304.699C301.258 16.1427 298.155 13.783 297.543 10.3965C297.502 10.1729 297.477 9.94939 297.452 9.72581C297.163 6.3559 294.449 3.7229 291.074 3.7229H269.944C250.394 3.7229 234.551 19.5789 234.551 39.1442Z" fill="white"/>
<path d="M453.668 100.187C454.581 100.187 455.323 100.929 455.323 101.843V115.09C455.323 116.004 454.581 116.746 453.668 116.746C452.756 116.746 452.013 116.004 452.013 115.09V101.843C452.013 100.929 452.756 100.187 453.668 100.187Z" fill="#3F3D56"/>
<path d="M453.668 139.93C454.581 139.93 455.323 140.673 455.323 141.586V167.254C455.323 168.167 454.581 168.91 453.668 168.91C452.756 168.91 452.013 168.167 452.013 167.254V141.586C452.013 140.673 452.756 139.93 453.668 139.93Z" fill="#3F3D56"/>
<path d="M453.668 176.361C454.581 176.361 455.323 177.104 455.323 178.017V203.685C455.323 204.598 454.581 205.341 453.668 205.341C452.756 205.341 452.013 204.598 452.013 203.685V178.017C452.013 177.104 452.756 176.361 453.668 176.361Z" fill="#3F3D56"/>
<path d="M393.171 9.52197H424.815C424.986 9.52197 425.126 9.66132 425.126 9.83322V13.3507C425.126 13.5226 424.986 13.6619 424.815 13.6619H393.171C392.999 13.6619 392.86 13.5226 392.86 13.3507V9.83322C392.86 9.66132 392.999 9.52197 393.171 9.52197Z" fill="#E6E6E6"/>
<path d="M285.845 13.6619C284.017 13.6619 282.536 12.1791 282.536 10.3499C282.536 8.52077 284.017 7.03796 285.845 7.03796C287.673 7.03796 289.154 8.52077 289.154 10.3499C289.154 12.1791 287.673 13.6619 285.845 13.6619Z" fill="#E6E6E6"/>
<path d="M276.745 13.6619C274.917 13.6619 273.435 12.1791 273.435 10.3499C273.435 8.52077 274.917 7.03796 276.745 7.03796C278.572 7.03796 280.054 8.52077 280.054 10.3499C280.054 12.1791 278.572 13.6619 276.745 13.6619Z" fill="#E6E6E6"/>
<path d="M267.644 13.6619C265.816 13.6619 264.335 12.1791 264.335 10.3499C264.335 8.52077 265.816 7.03796 267.644 7.03796C269.472 7.03796 270.953 8.52077 270.953 10.3499C270.953 12.1791 269.472 13.6619 267.644 13.6619Z" fill="#E6E6E6"/>
<path d="M266.592 304.741C266.592 266.99 298.473 246.223 334.891 236.387C381.582 223.776 415.778 249.294 403.19 304.741C394.833 341.554 352.414 396.493 334.891 363.062C314.84 324.808 266.592 342.492 266.592 304.741Z" fill="#F2F2F2"/>
<path d="M526 458.806C526 459.468 525.469 460 524.807 460H1.19301C0.531364 460 -1.23756e-05 459.468 -1.23756e-05 458.806C-1.23756e-05 458.144 0.531364 457.612 1.19301 457.612H524.807C525.469 457.612 526 458.144 526 458.806Z" fill="#CCCCCC"/>
<path d="M358.365 298.003L366.616 294.091C363.232 298.818 360.316 306.199 358.755 312.073C356.111 306.602 351.85 299.907 347.633 295.908L356.353 298.153C350.98 271.797 330.769 252.876 307.625 252.876L307.298 251.924C331.472 251.924 352.879 270.583 358.365 298.003Z" fill="#3F3D56"/>
<path d="M320.39 338.16H372.522C374.733 338.16 376.532 336.36 376.532 334.147C376.532 331.934 374.733 330.134 372.522 330.134H320.39C318.179 330.134 316.38 331.934 316.38 334.147C316.38 336.36 318.179 338.16 320.39 338.16Z" fill="#6C63FF"/>
<path d="M271.657 130.159V236.514C271.657 245.919 279.302 253.571 288.7 253.571H394.969C404.367 253.571 412.012 245.919 412.012 236.514V130.159C412.012 120.754 404.367 113.102 394.969 113.102H288.7C279.302 113.102 271.657 120.754 271.657 130.159ZM288.7 251.564C280.395 251.564 273.662 244.826 273.662 236.514V182.894C273.662 145.457 303.986 115.109 341.392 115.109H394.969C403.274 115.109 410.007 121.847 410.007 130.159V236.514C410.007 244.826 403.274 251.564 394.969 251.564H288.7Z" fill="#3F3D56"/>
<path d="M327.688 156.539H361.996C362.86 156.539 363.564 155.835 363.564 154.969C363.564 154.104 362.86 153.4 361.996 153.4H327.688C326.823 153.4 326.12 154.104 326.12 154.969C326.12 155.835 326.823 156.539 327.688 156.539Z" fill="#3F3D56"/>
<path d="M327.688 190.015H361.996C362.86 190.015 363.564 189.31 363.564 188.445C363.564 187.579 362.86 186.875 361.996 186.875H327.688C326.823 186.875 326.12 187.579 326.12 188.445C326.12 189.31 326.823 190.015 327.688 190.015Z" fill="#3F3D56"/>
<path d="M344.731 236.169H379.039C379.904 236.169 380.607 235.464 380.607 234.599C380.607 233.733 379.904 233.029 379.039 233.029H344.731C343.866 233.029 343.163 233.733 343.163 234.599C343.163 235.464 343.866 236.169 344.731 236.169Z" fill="#3F3D56"/>
<path d="M309.279 173.288H380.405C381.27 173.288 381.974 172.584 381.974 171.718C381.974 170.852 381.27 170.148 380.405 170.148H309.279C308.414 170.148 307.71 170.852 307.71 171.718C307.71 172.584 308.414 173.288 309.279 173.288Z" fill="#3F3D56"/>
</g>
<defs>
<clipPath id="clip0_742_4">
<rect width="526" height="460" fill="white" transform="matrix(-1 0 0 1 526 0)"/>
</clipPath>
</defs>
</svg>
