<svg width="521" height="407" viewBox="0 0 521 407" fill="none" xmlns="http://www.w3.org/2000/svg">
<g clip-path="url(#clip0_744_135)">
<path d="M35.062 306.697C32.5881 306.697 30.109 306.815 27.688 307.053L27.3357 307.087C11.2773 308.727 -0.468706 318.24 0.0143737 329.217L0.107764 331.201C0.169351 332.456 0.234968 333.805 0.288979 335.301C0.318232 336.039 1.19004 336.606 2.27484 336.606H397.273C425.122 336.41 452.871 336.165 479.743 335.875C484.783 335.887 489.819 335.586 494.831 334.972C502.299 333.951 507.482 331.927 510.678 328.785H510.679C514.654 324.888 514.779 319.982 514.539 314.438C514.049 303.243 513.564 291.484 513.079 279.759C512.651 269.427 512.225 259.121 511.799 249.255C511.536 243.4 510.95 238.232 506.436 234.282C501.544 230.011 492.621 227.845 479.915 227.845C479.762 227.845 479.609 227.845 479.454 227.846C439.636 228.01 400.183 243.825 381.28 267.201C379.104 269.893 377.075 272.774 375.114 275.562C372.215 279.679 369.219 283.936 365.643 287.743C363.707 289.832 361.613 291.718 359.386 293.377C359.233 293.499 359.057 293.631 358.871 293.755C358.446 294.075 358.002 294.383 357.569 294.658C355.033 296.35 352.361 297.753 349.59 298.848L349.311 298.957C349.1 299.044 348.872 299.131 348.644 299.21C347.044 299.803 345.381 300.317 343.716 300.731C336.511 302.566 328.317 303.006 319.365 302.037C311.143 301.124 303.028 299.214 295.153 296.338C286.862 293.311 279.103 289.538 271.599 285.889C268.302 284.286 264.893 282.628 261.488 281.058C260.848 280.762 260.219 280.473 259.58 280.184C255.421 278.312 251.651 276.766 248.054 275.457C239.142 272.203 229.917 270.229 220.587 269.581C210.684 268.954 201.957 270.136 194.655 273.083C192.642 273.893 190.681 274.869 188.789 276.003C180.14 281.191 174.808 288.848 169.652 296.254C163.238 305.465 156.606 314.99 143.509 319.928C128.397 325.63 106.339 323.261 90.7329 319.141C85.8264 317.845 80.9258 316.355 76.1863 314.913C74.2722 314.331 72.3567 313.752 70.4398 313.178C66.6731 312.054 63.5903 311.194 60.7382 310.467L59.8362 310.235C59.3344 310.109 58.8321 309.983 58.3208 309.863C54.9331 309.042 51.7787 308.395 48.6722 307.887L47.9372 307.763C46.4637 307.539 45.0862 307.352 43.7343 307.195L43.1947 307.133C40.5471 306.842 37.8071 306.697 35.062 306.697Z" fill="#F2F2F2"/>
<path d="M443.513 318.947C454.628 307.378 471.16 301.561 485.027 308.048C470.802 317.171 459.829 331.812 454.05 349.38C451.842 356.165 449.998 363.977 444.568 367.609C441.19 369.869 436.986 369.98 433.198 368.889C429.41 367.798 425.937 365.61 422.512 363.445L421.538 363.419C425.912 346.892 432.399 330.517 443.513 318.947Z" fill="#E6E6E6"/>
<path d="M484.949 308.399C472.668 310.233 461.198 316.49 452.17 326.282C450.194 328.35 448.513 330.765 447.188 333.437C445.97 336.089 445.389 339.07 445.506 342.069C445.566 344.867 445.908 347.722 445.378 350.489C445.089 351.9 444.544 353.225 443.78 354.377C443.016 355.528 442.05 356.48 440.946 357.17C438.232 358.972 435.119 359.54 432.059 359.974C428.661 360.455 425.124 360.892 422.183 363.094C421.826 363.361 421.489 362.706 421.845 362.44C426.963 358.609 433.438 360.003 438.941 357.447C441.509 356.254 443.781 354.16 444.585 350.994C445.289 348.225 444.938 345.281 444.856 342.448C444.705 339.524 445.176 336.603 446.229 333.938C447.431 331.196 449.029 328.71 450.954 326.587C455.221 321.728 460.124 317.674 465.481 314.574C471.579 310.997 478.161 308.651 484.943 307.638C485.363 307.575 485.366 308.337 484.949 308.399Z" fill="white"/>
<path d="M454.917 322.931C453.7 320.958 453.13 318.55 453.309 316.137C453.487 313.724 454.402 311.462 455.891 309.757C456.193 309.413 456.67 309.939 456.368 310.283C454.979 311.869 454.126 313.975 453.964 316.223C453.802 318.471 454.34 320.711 455.483 322.54C455.731 322.938 455.163 323.326 454.917 322.931Z" fill="white"/>
<path d="M445.314 340.654C449.534 341.518 453.882 340.512 457.489 337.838C457.846 337.573 458.184 338.227 457.827 338.492C454.069 341.267 449.543 342.303 445.152 341.393C444.734 341.306 444.898 340.568 445.314 340.654Z" fill="white"/>
<path d="M471.632 312.005C471.965 312.882 472.481 313.649 473.135 314.238C473.788 314.827 474.557 315.22 475.374 315.38C475.794 315.461 475.63 316.199 475.213 316.119C474.311 315.937 473.462 315.502 472.739 314.853C472.016 314.204 471.441 313.36 471.066 312.395C471.024 312.308 471.012 312.205 471.034 312.108C471.055 312.011 471.107 311.927 471.18 311.873C471.255 311.822 471.345 311.807 471.43 311.832C471.514 311.856 471.587 311.919 471.632 312.005Z" fill="white"/>
<path d="M500.297 363.841C500.034 363.799 499.771 363.758 499.504 363.72C495.966 363.178 492.396 362.968 488.828 363.094C488.553 363.099 488.273 363.108 487.998 363.122C479.406 363.53 470.955 365.777 463.073 369.749C459.938 371.333 456.912 373.19 454.021 375.304C450.028 378.224 445.9 381.758 441.437 382.948C440.973 383.079 440.502 383.176 440.027 383.239L421.586 364.795C421.563 364.728 421.535 364.667 421.511 364.6L420.746 363.903C420.888 363.782 421.038 363.66 421.181 363.539C421.263 363.468 421.35 363.402 421.432 363.331C421.489 363.285 421.545 363.239 421.593 363.194C421.612 363.179 421.631 363.164 421.646 363.154C421.695 363.108 421.744 363.073 421.789 363.032C422.626 362.348 423.469 361.668 424.317 360.995C424.321 360.99 424.321 360.99 424.328 360.989C430.751 355.785 437.685 351.48 444.985 348.163C445.204 348.067 445.427 347.967 445.654 347.879C448.942 346.467 452.324 345.368 455.767 344.592C457.653 344.175 459.557 343.868 461.47 343.672C466.414 343.178 471.395 343.586 476.23 344.88C485.867 347.462 494.683 353.575 499.904 363.108C500.038 363.352 500.167 363.593 500.297 363.841Z" fill="#E6E6E6"/>
<path d="M500.053 364.07C489.291 356.992 476.872 354.012 464.56 355.551C461.905 355.828 459.303 356.587 456.852 357.8C454.498 359.07 452.481 361.046 451.011 363.521C449.6 365.798 448.385 368.315 446.52 370.156C445.553 371.081 444.428 371.761 443.218 372.149C442.008 372.537 440.74 372.625 439.499 372.408C436.392 371.959 433.611 370.248 430.942 368.465C427.978 366.486 424.926 364.376 421.43 364.088C421.006 364.054 421.078 363.296 421.501 363.331C427.584 363.832 432.028 369.449 437.754 371.234C440.426 372.068 443.332 371.976 445.624 370.007C447.628 368.286 448.883 365.692 450.294 363.372C451.698 360.933 453.597 358.928 455.826 357.532C458.215 356.179 460.787 355.306 463.43 354.949C469.37 354.038 475.397 354.21 481.29 355.461C488.023 356.845 494.501 359.55 500.445 363.458C500.813 363.7 500.418 364.311 500.053 364.07Z" fill="white"/>
<path d="M468.499 354.786C468.556 352.365 469.356 350.046 470.756 348.243C472.157 346.44 474.066 345.271 476.144 344.945C476.565 344.88 476.671 345.632 476.25 345.697C474.315 345.997 472.536 347.086 471.235 348.768C469.934 350.449 469.196 352.613 469.155 354.868C469.145 355.358 468.49 355.273 468.499 354.786Z" fill="white"/>
<path d="M451.595 362.258C454.514 365.883 458.509 368.104 462.783 368.477C463.207 368.514 463.136 369.271 462.713 369.235C458.265 368.836 454.112 366.516 451.081 362.736C450.792 362.375 451.307 361.9 451.595 362.258Z" fill="white"/>
<path d="M487.54 357.687C487.349 358.619 487.362 359.591 487.576 360.515C487.791 361.44 488.201 362.289 488.769 362.985C489.062 363.341 488.546 363.816 488.256 363.463C487.63 362.69 487.179 361.752 486.94 360.731C486.701 359.71 486.682 358.637 486.885 357.605C486.897 357.506 486.941 357.416 487.009 357.354C487.076 357.291 487.162 357.26 487.248 357.268C487.335 357.279 487.414 357.33 487.469 357.408C487.524 357.487 487.549 357.587 487.54 357.687Z" fill="white"/>
<path d="M152.559 330.454C161.66 314.508 177.94 302.974 194.334 305.456C181.317 319.784 173.107 338.969 171.157 359.617C170.43 367.583 170.339 376.53 165.407 382.16C162.338 385.663 157.868 387.132 153.554 387.183C149.24 387.233 144.999 386.009 140.814 384.794L139.766 385.08C140.464 365.998 143.458 346.399 152.559 330.454Z" fill="#E6E6E6"/>
<path d="M194.336 305.856C181.642 311.764 170.882 322.142 163.584 335.516C161.969 338.363 160.752 341.486 159.979 344.77C159.315 347.998 159.412 351.372 160.259 354.542C160.997 357.516 162.05 360.459 162.15 363.589C162.18 365.192 161.917 366.784 161.377 368.261C160.837 369.738 160.034 371.066 159.018 372.159C156.55 374.959 153.357 376.567 150.189 378.014C146.67 379.62 142.993 381.225 140.378 384.525C140.061 384.924 139.542 384.333 139.859 383.934C144.41 378.192 151.671 377.602 156.941 373.099C159.4 370.998 161.326 368.028 161.423 364.384C161.509 361.197 160.425 358.161 159.655 355.157C158.79 352.078 158.59 348.802 159.073 345.614C159.699 342.295 160.81 339.122 162.357 336.233C165.751 329.665 170.018 323.754 175.001 318.717C180.661 312.931 187.136 308.307 194.146 305.044C194.58 304.842 194.767 305.656 194.336 305.856Z" fill="white"/>
<path d="M165.715 331.05C163.938 329.331 162.749 326.939 162.358 324.3C161.968 321.662 162.403 318.949 163.584 316.646C163.824 316.181 164.461 316.591 164.22 317.056C163.117 319.198 162.712 321.725 163.08 324.182C163.448 326.638 164.564 328.861 166.226 330.45C166.587 330.796 166.073 331.394 165.715 331.05Z" fill="white"/>
<path d="M159.712 353.091C164.434 352.659 168.842 350.186 172.056 346.167C172.374 345.768 172.893 346.359 172.575 346.758C169.224 350.933 164.633 353.495 159.718 353.933C159.249 353.974 159.247 353.132 159.712 353.091Z" fill="white"/>
<path d="M180.961 313.992C181.528 314.823 182.265 315.478 183.106 315.898C183.946 316.318 184.864 316.49 185.776 316.4C186.244 316.351 186.246 317.194 185.782 317.241C184.773 317.336 183.76 317.144 182.83 316.682C181.901 316.221 181.084 315.503 180.45 314.592C180.384 314.512 180.346 314.406 180.346 314.295C180.345 314.185 180.381 314.078 180.446 313.997C180.514 313.918 180.606 313.873 180.703 313.872C180.799 313.871 180.892 313.914 180.961 313.992Z" fill="white"/>
<path d="M224.103 360.221C223.812 360.261 223.52 360.3 223.226 360.346C219.311 360.903 215.442 361.827 211.657 363.107C211.363 363.201 211.066 363.301 210.775 363.404C201.684 366.602 193.187 371.721 185.714 378.502C182.742 381.203 179.953 384.162 177.37 387.352C173.803 391.759 170.239 396.864 165.752 399.572C165.287 399.861 164.807 400.116 164.314 400.336L140.149 386.535C140.108 386.472 140.064 386.415 140.022 386.351L139.035 385.851C139.159 385.676 139.29 385.497 139.413 385.322C139.484 385.22 139.561 385.121 139.632 385.019C139.681 384.952 139.73 384.885 139.771 384.821C139.788 384.799 139.804 384.777 139.818 384.761C139.859 384.697 139.903 384.643 139.941 384.585C140.672 383.584 141.409 382.587 142.155 381.594C142.157 381.587 142.157 381.587 142.165 381.584C147.86 374.034 154.15 366.967 161.169 361.227C161.381 361.055 161.594 360.876 161.817 360.709C164.993 358.142 168.345 355.88 171.841 353.944C173.758 352.891 175.719 351.951 177.719 351.127C182.888 349.01 188.313 347.845 193.796 347.676C204.725 347.34 215.626 351.045 223.506 359.563C223.708 359.782 223.904 359.997 224.103 360.221Z" fill="#E6E6E6"/>
<path d="M223.897 360.545C210.682 356.433 196.682 357.236 183.885 362.839C181.111 363.989 178.512 365.636 176.183 367.721C173.97 369.836 172.289 372.598 171.313 375.718C170.352 378.606 169.659 381.688 168.108 384.256C167.296 385.557 166.256 386.645 165.056 387.449C163.855 388.253 162.521 388.755 161.14 388.921C157.71 389.44 154.323 388.503 151.039 387.455C147.392 386.29 143.62 385.014 139.812 385.83C139.35 385.929 139.245 385.096 139.705 384.997C146.332 383.578 152.437 388.157 158.992 388.227C162.05 388.26 165.136 387.228 167.113 384.386C168.843 381.901 169.56 378.722 170.51 375.789C171.424 372.729 172.972 369.974 175.02 367.765C177.25 365.55 179.79 363.789 182.531 362.559C188.664 359.674 195.152 357.922 201.756 357.366C209.291 356.683 216.871 357.494 224.169 359.763C224.62 359.904 224.346 360.684 223.897 360.545Z" fill="white"/>
<path d="M187.914 360.755C187.391 358.147 187.688 355.409 188.752 353.031C189.815 350.653 191.576 348.789 193.72 347.772C194.154 347.568 194.449 348.338 194.014 348.543C192.017 349.485 190.377 351.222 189.39 353.439C188.404 355.655 188.136 358.207 188.634 360.632C188.742 361.159 188.021 361.279 187.914 360.755Z" fill="white"/>
<path d="M171.633 374.179C175.629 377.118 180.437 378.209 185.098 377.235C185.559 377.138 185.665 377.971 185.204 378.068C180.352 379.071 175.351 377.924 171.199 374.855C170.803 374.562 171.24 373.888 171.633 374.179Z" fill="white"/>
<path d="M208.977 357.739C208.998 358.796 209.245 359.832 209.697 360.752C210.149 361.672 210.792 362.448 211.568 363.01C211.966 363.297 211.529 363.971 211.133 363.686C210.278 363.06 209.569 362.202 209.068 361.187C208.567 360.172 208.288 359.03 208.257 357.862C208.246 357.752 208.271 357.641 208.328 357.553C208.385 357.464 208.47 357.403 208.564 357.384C208.659 357.368 208.756 357.397 208.834 357.463C208.911 357.529 208.963 357.629 208.977 357.739Z" fill="white"/>
<path d="M217.331 210.905C217.934 210.211 218.399 209.372 218.692 208.448C218.985 207.524 219.099 206.537 219.026 205.557C218.953 204.577 218.695 203.627 218.27 202.774C217.845 201.921 217.263 201.187 216.565 200.622L226.077 147.448L215.815 151.187L208.163 202.629C207.419 204.046 207.151 205.728 207.409 207.358C207.667 208.987 208.434 210.451 209.564 211.471C210.694 212.491 212.109 212.997 213.541 212.892C214.972 212.788 216.32 212.081 217.331 210.905Z" fill="#FFB6B6"/>
<path d="M239.316 68.7682L232.959 63.2255C232.959 63.2255 227.351 62.7667 226.358 74.4481C225.365 86.1295 219.147 130.962 219.147 130.962L209.42 183.003L222.885 186.417L233.303 130.256L243.732 91.5105L239.316 68.7682Z" fill="#E6E6E6"/>
<path d="M234.473 165.062L203.981 137.675C203.506 137.247 203.198 136.619 203.123 135.929C203.048 135.239 203.213 134.543 203.582 133.993L224.329 103.172C224.699 102.624 225.242 102.267 225.84 102.181C226.437 102.094 227.04 102.285 227.516 102.712L258.007 130.099C258.482 130.526 258.791 131.154 258.866 131.844C258.941 132.534 258.775 133.231 258.406 133.78L237.66 164.601C237.29 165.15 236.746 165.506 236.149 165.593C235.551 165.679 234.949 165.488 234.473 165.062Z" fill="#3F3D56"/>
<path d="M234.305 162.228L206.4 137.164C205.979 136.785 205.704 136.227 205.638 135.614C205.572 135.002 205.718 134.383 206.046 133.895L224.854 105.955C225.182 105.468 225.665 105.151 226.195 105.074C226.726 104.998 227.261 105.167 227.683 105.546L255.588 130.61C256.01 130.989 256.284 131.547 256.351 132.159C256.417 132.772 256.27 133.39 255.943 133.878L237.135 161.819C236.806 162.306 236.324 162.623 235.793 162.699C235.263 162.776 234.728 162.607 234.305 162.228Z" fill="white"/>
<path d="M210.059 136.453C209.953 136.358 209.885 136.219 209.868 136.066C209.851 135.913 209.888 135.758 209.97 135.636L219.458 121.541C219.54 121.419 219.661 121.34 219.793 121.321C219.859 121.311 219.926 121.317 219.989 121.337C220.053 121.357 220.113 121.392 220.165 121.439C220.218 121.486 220.261 121.544 220.294 121.611C220.327 121.677 220.348 121.75 220.356 121.826C220.364 121.902 220.359 121.979 220.342 122.053C220.324 122.127 220.294 122.196 220.254 122.256L210.766 136.351C210.684 136.473 210.563 136.552 210.431 136.571C210.298 136.59 210.164 136.548 210.059 136.453Z" fill="#E4E4E4"/>
<path d="M211.631 137.866C211.526 137.771 211.457 137.632 211.441 137.478C211.424 137.325 211.461 137.171 211.543 137.049L221.03 122.953C221.112 122.831 221.233 122.752 221.366 122.733C221.498 122.714 221.632 122.756 221.738 122.851C221.843 122.946 221.912 123.085 221.929 123.239C221.945 123.392 221.908 123.546 221.826 123.668L212.338 137.764C212.256 137.885 212.136 137.964 212.003 137.984C211.87 138.003 211.737 137.96 211.631 137.866Z" fill="#E4E4E4"/>
<path d="M218.579 131.293C218.473 131.198 218.405 131.059 218.388 130.905C218.372 130.752 218.408 130.598 218.49 130.476L222.603 124.366C222.643 124.305 222.694 124.255 222.752 124.217C222.809 124.179 222.873 124.154 222.938 124.145C223.004 124.135 223.071 124.141 223.135 124.161C223.199 124.181 223.258 124.216 223.311 124.263C223.363 124.31 223.407 124.368 223.44 124.435C223.472 124.501 223.493 124.575 223.502 124.651C223.51 124.727 223.505 124.804 223.487 124.877C223.47 124.951 223.44 125.02 223.399 125.081L219.286 131.191C219.204 131.312 219.083 131.392 218.951 131.411C218.818 131.43 218.684 131.388 218.579 131.293Z" fill="#E4E4E4"/>
<path d="M220.699 143.283C220.593 143.188 220.525 143.049 220.508 142.896C220.492 142.742 220.528 142.588 220.61 142.466L235.589 120.214C235.629 120.153 235.68 120.103 235.737 120.065C235.795 120.027 235.858 120.003 235.924 119.994C235.99 119.984 236.056 119.99 236.12 120.01C236.184 120.03 236.244 120.065 236.296 120.112C236.348 120.159 236.392 120.217 236.425 120.283C236.458 120.35 236.479 120.423 236.487 120.499C236.495 120.575 236.49 120.652 236.473 120.726C236.455 120.799 236.425 120.868 236.385 120.929L221.406 143.181C221.324 143.303 221.203 143.382 221.071 143.401C220.938 143.42 220.804 143.378 220.699 143.283Z" fill="#E4E4E4"/>
<path d="M222.271 144.695C222.166 144.6 222.097 144.461 222.081 144.308C222.064 144.155 222.101 144 222.183 143.878L237.161 121.626C237.202 121.566 237.252 121.515 237.31 121.477C237.367 121.44 237.431 121.415 237.497 121.406C237.562 121.396 237.629 121.402 237.693 121.422C237.757 121.442 237.816 121.477 237.869 121.524C237.921 121.571 237.965 121.629 237.997 121.696C238.03 121.762 238.051 121.835 238.059 121.911C238.068 121.987 238.063 122.064 238.045 122.138C238.028 122.212 237.998 122.281 237.957 122.341L222.979 144.593C222.897 144.715 222.776 144.794 222.643 144.813C222.511 144.832 222.377 144.79 222.271 144.695Z" fill="#E4E4E4"/>
<path d="M225.841 147.901C225.736 147.806 225.667 147.667 225.65 147.514C225.634 147.361 225.67 147.206 225.752 147.084L240.731 124.832C240.771 124.772 240.822 124.721 240.879 124.684C240.937 124.646 241 124.621 241.066 124.612C241.132 124.602 241.198 124.608 241.262 124.628C241.326 124.649 241.386 124.683 241.438 124.73C241.49 124.777 241.534 124.835 241.567 124.902C241.6 124.968 241.621 125.042 241.629 125.117C241.637 125.193 241.632 125.27 241.615 125.344C241.597 125.418 241.567 125.487 241.527 125.547L226.548 147.799C226.466 147.921 226.346 148 226.213 148.019C226.08 148.038 225.947 147.996 225.841 147.901Z" fill="#E4E4E4"/>
<path d="M227.413 149.314C227.308 149.219 227.239 149.08 227.223 148.926C227.206 148.773 227.243 148.619 227.325 148.497L242.303 126.245C242.344 126.184 242.394 126.134 242.452 126.096C242.509 126.058 242.573 126.034 242.639 126.024C242.704 126.015 242.771 126.02 242.835 126.041C242.899 126.061 242.958 126.095 243.011 126.142C243.063 126.189 243.107 126.248 243.139 126.314C243.172 126.381 243.193 126.454 243.201 126.53C243.21 126.606 243.205 126.683 243.187 126.756C243.17 126.83 243.14 126.899 243.099 126.96L228.121 149.212C228.039 149.333 227.918 149.412 227.785 149.432C227.653 149.451 227.519 149.408 227.413 149.314Z" fill="#E4E4E4"/>
<path d="M230.983 152.52C230.878 152.425 230.809 152.286 230.792 152.133C230.776 151.979 230.813 151.825 230.894 151.703L245.873 129.451C245.913 129.39 245.964 129.34 246.021 129.302C246.079 129.264 246.142 129.24 246.208 129.23C246.274 129.221 246.34 129.227 246.404 129.247C246.468 129.267 246.528 129.302 246.58 129.349C246.632 129.396 246.676 129.454 246.709 129.52C246.742 129.587 246.763 129.66 246.771 129.736C246.779 129.812 246.774 129.889 246.757 129.963C246.739 130.036 246.709 130.105 246.669 130.166L231.69 152.418C231.608 152.539 231.488 152.619 231.355 152.638C231.222 152.657 231.089 152.615 230.983 152.52Z" fill="#E4E4E4"/>
<path d="M232.555 153.932C232.45 153.837 232.382 153.698 232.365 153.545C232.348 153.392 232.385 153.237 232.467 153.115L247.445 130.863C247.527 130.742 247.648 130.663 247.78 130.644C247.913 130.625 248.046 130.668 248.152 130.762C248.257 130.857 248.326 130.996 248.342 131.149C248.359 131.302 248.323 131.456 248.241 131.578L233.263 153.83C233.181 153.952 233.06 154.031 232.927 154.05C232.795 154.069 232.661 154.027 232.555 153.932Z" fill="#E4E4E4"/>
<path d="M207.522 179.775C207.636 179.775 207.729 179.668 207.729 179.536C207.729 179.403 207.636 179.296 207.522 179.296C207.407 179.296 207.315 179.403 207.315 179.536C207.315 179.668 207.407 179.775 207.522 179.775Z" fill="white"/>
<path d="M237.682 15.0311C236.954 19.5494 235.76 23.9506 234.126 28.1409C224.769 51.0064 251.416 43.5534 260.938 43.5534C271.35 43.5534 281.312 49.8777 279.79 21.7767C279.14 9.77321 271.35 0 260.938 0C252.045 0 239.541 4.56615 237.682 15.0311Z" fill="#2F2E41"/>
<path d="M270.643 350.385H261.773L257.551 310.861H270.643V350.385Z" fill="#FFB6B6"/>
<path d="M275.325 368.139H268.964L267.828 361.201L264.92 368.139H248.048C247.239 368.139 246.451 367.84 245.8 367.287C245.149 366.733 244.667 365.954 244.427 365.062C244.186 364.17 244.198 363.212 244.462 362.329C244.726 361.446 245.227 360.683 245.893 360.153L259.366 349.403V342.389L273.538 343.367L275.325 368.139Z" fill="#2F2E41"/>
<path d="M323.345 337.453L316.226 343.568L292.422 314.762L302.928 305.737L323.345 337.453Z" fill="#FFB6B6"/>
<path d="M336.273 348.473L331.168 352.858L326.673 348.073L327.923 355.645L314.384 367.275C313.735 367.832 312.949 368.136 312.14 368.141C311.331 368.145 310.543 367.851 309.889 367.302C309.235 366.752 308.75 365.975 308.506 365.084C308.261 364.194 308.269 363.236 308.529 362.352L313.788 344.439L310.165 338.81L322.042 329.826L336.273 348.473Z" fill="#2F2E41"/>
<path d="M241.59 168.483L283.7 160.907L275.326 131.806H241.59V168.483Z" fill="#FFB6B6"/>
<path d="M280.971 146.463C280.971 146.463 297.802 163.26 290.037 211.144L280.556 258.062L306.386 309.864L293.252 318.139L261.421 267.035L246.856 227.568L239.151 158.398L280.971 146.463Z" fill="#2F2E41"/>
<path d="M254.884 238.815L253.871 256.926L256.835 310.554L271.547 316.405L274.333 261.458L254.884 238.815Z" fill="#2F2E41"/>
<path d="M250.361 49.5806L266.638 50.3141L273.125 62.7531L287.926 66.0907L279.09 117.725L280.715 147.114L265.977 147.01C255.356 146.935 245.085 151.393 237.134 159.527L237.575 121.377L231.236 92.8991L232.66 63.0378L244.567 61.3186L250.361 49.5806Z" fill="#E6E6E6"/>
<path d="M259.378 43.5481C267.839 43.5481 274.698 35.6253 274.698 25.852C274.698 16.0788 267.839 8.15601 259.378 8.15601C250.918 8.15601 244.059 16.0788 244.059 25.852C244.059 35.6253 250.918 43.5481 259.378 43.5481Z" fill="#FFB6B6"/>
<path d="M248.975 7.81337C251.66 5.92295 254.734 4.90034 257.878 4.85247C261.022 4.8046 264.119 5.73322 266.845 7.54123C269.572 9.34924 271.828 11.9702 273.378 15.1302C274.927 18.2901 275.713 21.8729 275.654 25.5039C267.848 27.7678 259.647 29.5003 251.323 26.0454L249.357 20.4876L248.198 26.0496C245.663 27.2465 243.121 28.2592 240.579 26.038C240.476 22.4172 241.196 18.8283 242.67 15.6302C244.143 12.432 246.317 9.73661 248.975 7.81337Z" fill="#2F2E41"/>
<path d="M285.092 182.791L287.157 204.44C287.301 204.98 287.591 205.453 287.985 205.789C288.378 206.124 288.855 206.306 289.344 206.306H298.863C299.352 206.306 299.829 206.125 300.222 205.789C300.616 205.453 300.906 204.98 301.05 204.44L302.76 187.847C303.254 188.127 303.798 188.267 304.348 188.257C304.898 188.246 305.437 188.085 305.923 187.786C306.408 187.488 306.825 187.06 307.14 186.539C307.454 186.018 307.657 185.418 307.732 184.789C307.806 184.16 307.751 183.519 307.569 182.919C307.388 182.32 307.085 181.779 306.688 181.34C306.29 180.902 305.807 180.579 305.28 180.398C304.753 180.216 304.197 180.182 303.656 180.298C303.443 180.007 303.177 179.773 302.877 179.613C302.577 179.453 302.251 179.37 301.92 179.371H287.279C286.921 179.371 286.568 179.468 286.248 179.655C285.929 179.841 285.651 180.111 285.439 180.444C285.226 180.777 285.084 181.162 285.024 181.57C284.964 181.978 284.987 182.396 285.092 182.791ZM303.059 186.725L304.107 182.791C304.228 182.337 304.24 181.854 304.141 181.392C304.186 181.39 304.228 181.377 304.274 181.377C304.932 181.377 305.563 181.679 306.028 182.216C306.493 182.754 306.754 183.482 306.754 184.242C306.754 185.002 306.493 185.731 306.028 186.269C305.563 186.806 304.932 187.108 304.274 187.108C303.847 187.105 303.428 186.973 303.059 186.725Z" fill="#6C63FF"/>
<path d="M299.447 206.321C298.846 205.623 298.385 204.782 298.096 203.856C297.807 202.93 297.697 201.943 297.774 200.963C297.852 199.983 298.114 199.034 298.543 198.184C298.972 197.334 299.557 196.603 300.257 196.042L290.98 142.813L301.225 146.613L308.651 198.099C309.388 199.519 309.649 201.203 309.383 202.832C309.118 204.46 308.345 205.918 307.21 206.932C306.076 207.945 304.659 208.443 303.228 208.33C301.797 208.218 300.452 207.502 299.447 206.321Z" fill="#FFB6B6"/>
<path d="M281.569 71.6335L287.926 66.0908C287.926 66.0908 293.533 65.6321 294.526 77.3135C295.519 88.9949 301.738 133.828 301.738 133.828L311.465 185.868L298 189.282L287.582 133.121L277.153 94.3759L281.569 71.6335Z" fill="#E6E6E6"/>
<path d="M226.707 120.088C228.695 120.088 230.306 118.227 230.306 115.932C230.306 113.636 228.695 111.775 226.707 111.775C224.72 111.775 223.109 113.636 223.109 115.932C223.109 118.227 224.72 120.088 226.707 120.088Z" fill="#6C63FF"/>
<path d="M111.964 398.604L119.463 398.603L123.031 365.192L111.963 365.192L111.964 398.604Z" fill="#FFB6B6"/>
<path d="M110.051 395.775L112.162 395.775L120.403 391.904L124.819 395.774C127.315 395.775 129.71 396.92 131.475 398.959C133.239 400.997 134.231 403.762 134.231 406.646V406.999L110.052 407L110.051 395.775Z" fill="#2F2E41"/>
<path d="M141.024 393.145L148.339 395.053L158.19 363.37L147.394 360.554L141.024 393.145Z" fill="#FFB6B6"/>
<path d="M139.697 389.899L141.756 390.436L150.532 388.757L154.103 393.656L154.103 393.656C156.538 394.292 158.654 396.018 159.987 398.456C161.32 400.894 161.76 403.843 161.21 406.655L161.143 407L137.557 400.849L139.697 389.899Z" fill="#2F2E41"/>
<path d="M98.236 226.74L105.017 314.5C105.017 314.5 102.476 367.188 110.675 385.728H122.565L128.452 309.689L129.191 258.651L154.683 301.71L138.447 384.485L153.081 385.996L179.428 296.166L150.482 211.836L98.236 226.74Z" fill="#2F2E41"/>
<path d="M105.338 86.9826C114.996 86.9826 122.826 77.9384 122.826 66.7817C122.826 55.625 114.996 46.5807 105.338 46.5807C95.6796 46.5807 87.85 55.625 87.85 66.7817C87.85 77.9384 95.6796 86.9826 105.338 86.9826Z" fill="#FFB8B8"/>
<path d="M136.08 106.233L121.733 99.1223L114.749 90.5652L97.3018 93.8156L92.6727 102.984L77.6873 119.08L95.2444 210.781L94.7129 230.809C94.7129 230.809 105.95 236.653 154.683 223.199C155.267 223.037 154.044 222.331 154.044 222.331L136.08 106.233Z" fill="#3F3D56"/>
<path d="M87.1532 78.2442C87.0313 78.0521 86.9107 77.8584 86.7912 77.6631C86.7431 77.7804 86.7049 77.9016 86.6499 78.0161L87.1532 78.2442Z" fill="#2F2E41"/>
<path d="M122.734 52.0055C121.565 49.0639 119.481 46.738 116.895 45.4899C114.333 44.296 111.469 44.2989 108.908 45.498C106.596 43.8107 104.027 42.4731 101.322 42.3074C98.6167 42.1417 95.7565 43.3011 94.0893 45.8531C93.717 46.5268 93.2942 47.1613 92.8257 47.7494C91.4856 49.183 89.449 48.9762 87.6678 48.6831C88.4667 49.474 89.2658 50.265 90.0651 51.0559C89.0981 51.3478 88.1309 51.6396 87.1636 51.9314C88.2923 52.7221 89.4208 53.5128 90.5493 54.3035C87.273 56.5751 85.7838 61.5332 86.1772 66.0362C86.5493 70.2995 88.3311 74.1979 90.4612 77.663C91.3109 75.5917 91.1278 73.1133 91.1138 70.7805C91.0991 68.3156 91.4766 65.5166 93.1865 64.139C94.3399 63.2098 95.8231 63.1683 97.2139 63.1771C104.23 63.2216 111.238 63.727 118.204 64.6908C119.149 64.7381 120.071 65.0468 120.891 65.5912C122.432 66.8052 122.732 69.3105 122.887 71.5084C123.701 67.8793 124.099 64.1425 124.071 60.3937C124.14 57.5202 123.684 54.6622 122.734 52.0055Z" fill="#2F2E41"/>
<path d="M128.178 288.26C143.38 288.26 155.703 274.025 155.703 256.465C155.703 238.906 143.38 224.671 128.178 224.671C112.977 224.671 100.654 238.906 100.654 256.465C100.654 274.025 112.977 288.26 128.178 288.26Z" fill="white"/>
<path d="M128.178 223.964C126.763 223.964 125.351 224.087 123.952 224.331C123.236 224.452 122.539 224.607 121.848 224.798C116.77 226.15 112.117 229.105 108.408 233.334C104.7 237.562 102.081 242.898 100.845 248.746C99.6085 254.593 99.803 260.722 101.407 266.45C103.01 272.177 105.96 277.277 109.926 281.181C110.397 281.64 110.874 282.085 111.37 282.509C114.941 285.585 119.093 287.637 123.484 288.496C127.876 289.356 132.382 288.999 136.63 287.454C140.879 285.909 144.749 283.221 147.923 279.61C151.096 276 153.483 271.571 154.885 266.687C156.287 261.804 156.665 256.605 155.988 251.52C155.311 246.434 153.598 241.607 150.991 237.436C148.383 233.264 144.955 229.868 140.989 227.526C137.023 225.184 132.633 223.963 128.178 223.964ZM128.178 287.554C122.456 287.561 116.882 285.449 112.275 281.527C111.774 281.103 111.29 280.665 110.819 280.199C106.955 276.433 104.087 271.485 102.546 265.923C101.004 260.361 100.851 254.409 102.104 248.751C103.357 243.093 105.965 237.957 109.629 233.933C113.293 229.909 117.865 227.159 122.82 225.999C123.505 225.836 124.19 225.709 124.888 225.61C125.979 225.454 127.078 225.376 128.178 225.377C135.316 225.377 142.162 228.652 147.209 234.483C152.256 240.313 155.091 248.22 155.091 256.466C155.091 264.711 152.256 272.618 147.209 278.448C142.162 284.279 135.316 287.554 128.178 287.554Z" fill="#3F3D56"/>
<path d="M114.678 250.107H141.679C142.668 250.107 143.47 249.18 143.47 248.038V247.936C143.47 246.794 142.668 245.867 141.679 245.867H114.678C113.689 245.867 112.887 246.794 112.887 247.936V248.038C112.887 249.18 113.689 250.107 114.678 250.107Z" fill="#6C63FF"/>
<path d="M114.678 258.585H141.679C142.668 258.585 143.47 257.659 143.47 256.516V256.415C143.47 255.272 142.668 254.346 141.679 254.346H114.678C113.689 254.346 112.887 255.272 112.887 256.415V256.516C112.887 257.659 113.689 258.585 114.678 258.585Z" fill="#6C63FF"/>
<path d="M114.678 267.064H141.679C142.668 267.064 143.47 266.138 143.47 264.995V264.893C143.47 263.751 142.668 262.825 141.679 262.825H114.678C113.689 262.825 112.887 263.751 112.887 264.893V264.995C112.887 266.138 113.689 267.064 114.678 267.064Z" fill="#6C63FF"/>
<path d="M436.12 397.525L428.257 397.524L424.516 362.49L436.121 362.491L436.12 397.525Z" fill="#9E616A"/>
<path d="M398.92 397.525L391.058 397.524L387.317 362.49L398.922 362.491L398.92 397.525Z" fill="#9E616A"/>
<path d="M399.197 407L375.018 406.999V406.646C375.018 403.762 376.009 400.997 377.774 398.959C379.539 396.92 381.933 395.775 384.429 395.774H384.43L388.846 391.904L397.087 395.775L399.198 395.775L399.197 407Z" fill="#2F2E41"/>
<path d="M437.405 407L413.226 406.999V406.646C413.226 403.762 414.217 400.997 415.982 398.959C417.747 396.92 420.141 395.775 422.637 395.774H422.638L427.054 391.904L435.295 395.775L437.405 395.775L437.405 407Z" fill="#2F2E41"/>
<path d="M391.207 190.182L379.257 274.236L382.509 286.761L378.242 295.632L384.509 373.538L381.965 380.008L389.073 385.071H403.535L404.303 314.542L407.876 304.187V298.48L415.148 255.473L416.488 315.701L418.603 326.073L416.826 333.457L419.148 338.631L425.316 386.608H441.533L440.279 375.446C441.692 374.62 442.826 373.275 443.505 371.623C444.184 369.97 444.368 368.104 444.028 366.317L443.099 361.425L445.215 346.96L449.069 266.258L447.982 201.142L429.01 184.384L391.207 190.182Z" fill="#2F2E41"/>
<path d="M418.603 82.2473C426.925 82.2473 433.671 74.4547 433.671 64.8421C433.671 55.2296 426.925 47.437 418.603 47.437C410.281 47.437 403.535 55.2296 403.535 64.8421C403.535 74.4547 410.281 82.2473 418.603 82.2473Z" fill="#9E616A"/>
<path d="M385.682 223.537C386.338 222.754 386.837 221.815 387.145 220.786C387.452 219.756 387.561 218.661 387.462 217.578C387.364 216.495 387.061 215.45 386.575 214.516C386.089 213.583 385.432 212.784 384.65 212.176L390.509 186.581L379.22 190.967L375.387 214.6C374.589 216.185 374.323 218.054 374.639 219.851C374.954 221.648 375.829 223.249 377.098 224.351C378.367 225.452 379.942 225.978 381.524 225.828C383.106 225.678 384.586 224.863 385.682 223.537Z" fill="#9E616A"/>
<path d="M391.848 100.651L389.425 100.07L387.359 101.391C387.359 101.391 381.587 110.282 381.587 118.431C381.587 126.581 374.532 205.113 374.532 205.113L387.359 211.781L397.621 150.289L391.848 100.651Z" fill="#E6E6E6"/>
<path d="M431.798 52.081C431.798 52.081 435.739 43.3785 427.069 42.5873C427.069 42.5873 419.678 34.8423 412.144 41.1714C412.144 41.1714 408.035 41.1714 405.787 46.543C405.787 46.543 402.555 45.1271 401.845 48.9165C401.845 48.9165 399.48 56.8279 401.845 63.9482C404.21 71.0685 404.996 71.8596 404.996 71.8596C404.996 71.8596 401.11 56.9316 410.569 56.1404C420.028 55.3493 430.613 48.5209 431.401 57.2235C432.189 65.926 433.375 68.0703 433.375 68.0703C433.375 68.0703 440.863 55.6412 431.798 52.081Z" fill="#2F2E41"/>
<path d="M486.839 295.632C485.702 295.634 484.604 295.15 483.757 294.274L438.157 247.386C437.238 246.439 436.682 245.109 436.611 243.689C436.539 242.269 436.959 240.874 437.776 239.811L466.988 201.904C467.807 200.842 468.958 200.2 470.188 200.117C471.417 200.034 472.625 200.519 473.546 201.463L519.145 248.352C520.065 249.298 520.622 250.628 520.694 252.048C520.765 253.468 520.345 254.864 519.526 255.926L490.315 293.833C489.91 294.361 489.419 294.791 488.87 295.098C488.32 295.405 487.724 295.584 487.114 295.623C487.022 295.629 486.93 295.632 486.839 295.632Z" fill="white"/>
<path d="M486.838 295.977C485.628 295.979 484.46 295.464 483.558 294.532L437.959 247.644C436.981 246.636 436.389 245.221 436.313 243.709C436.237 242.198 436.683 240.713 437.553 239.581L466.765 201.674C467.637 200.545 468.862 199.861 470.17 199.773C471.479 199.685 472.764 200.2 473.744 201.205L519.344 248.094C520.323 249.101 520.916 250.516 520.992 252.028C521.068 253.54 520.621 255.025 519.749 256.156L490.538 294.063C490.107 294.625 489.584 295.082 489 295.409C488.415 295.736 487.78 295.926 487.132 295.967C487.034 295.973 486.936 295.977 486.838 295.977ZM470.459 201.142C469.93 201.141 469.406 201.269 468.923 201.519C468.44 201.769 468.008 202.134 467.657 202.591L438.445 240.498C437.785 241.357 437.447 242.483 437.504 243.629C437.562 244.776 438.011 245.849 438.753 246.613L484.352 293.501C484.72 293.879 485.149 294.17 485.614 294.357C486.079 294.544 486.571 294.623 487.063 294.59C487.554 294.557 488.035 294.413 488.479 294.165C488.922 293.917 489.318 293.571 489.646 293.146L518.857 255.239C519.518 254.381 519.857 253.255 519.8 252.108C519.742 250.961 519.292 249.888 518.55 249.124L472.95 202.236C472.264 201.53 471.378 201.14 470.459 201.142Z" fill="#3F3D56"/>
<path d="M503.374 259.732C502.882 259.733 502.406 259.524 502.039 259.146L466.245 222.34C466.047 222.137 465.885 221.892 465.77 221.617C465.654 221.342 465.586 221.044 465.57 220.739C465.555 220.434 465.591 220.129 465.678 219.84C465.764 219.551 465.899 219.285 466.075 219.057C466.251 218.829 466.464 218.643 466.703 218.51C466.941 218.377 467.199 218.3 467.463 218.283C467.727 218.265 467.992 218.309 468.241 218.41C468.491 218.511 468.721 218.668 468.918 218.872L504.712 255.677C505.016 255.99 505.231 256.403 505.328 256.86C505.425 257.317 505.399 257.798 505.254 258.238C505.109 258.678 504.851 259.056 504.515 259.323C504.18 259.59 503.782 259.733 503.374 259.732Z" fill="#6C63FF"/>
<path d="M496.547 268.591C496.054 268.592 495.579 268.383 495.211 268.005L459.418 231.199C459.221 230.996 459.06 230.751 458.945 230.476C458.83 230.202 458.763 229.904 458.748 229.6C458.733 229.295 458.769 228.991 458.856 228.703C458.943 228.415 459.078 228.149 459.253 227.922C459.429 227.694 459.641 227.508 459.879 227.376C460.117 227.243 460.374 227.165 460.638 227.148C460.901 227.13 461.165 227.173 461.415 227.273C461.664 227.373 461.894 227.529 462.091 227.732L497.885 264.537C498.189 264.85 498.404 265.263 498.501 265.72C498.598 266.177 498.572 266.658 498.427 267.097C498.281 267.537 498.024 267.916 497.688 268.183C497.352 268.449 496.954 268.592 496.547 268.591Z" fill="#6C63FF"/>
<path d="M489.72 277.452C489.227 277.453 488.751 277.244 488.384 276.865L452.59 240.06C452.392 239.857 452.232 239.611 452.116 239.337C452.001 239.062 451.934 238.764 451.918 238.46C451.903 238.155 451.94 237.85 452.026 237.562C452.113 237.274 452.248 237.008 452.424 236.78C452.599 236.552 452.812 236.366 453.05 236.234C453.288 236.101 453.546 236.023 453.809 236.006C454.073 235.988 454.337 236.031 454.587 236.132C454.836 236.232 455.066 236.388 455.263 236.591L491.057 273.397C491.361 273.71 491.576 274.122 491.673 274.58C491.77 275.037 491.744 275.517 491.599 275.957C491.454 276.397 491.196 276.776 490.861 277.043C490.525 277.31 490.127 277.452 489.72 277.452Z" fill="#6C63FF"/>
<path d="M448.786 225.048C448.327 224.096 448.054 223.041 447.986 221.954C447.918 220.868 448.057 219.778 448.394 218.76C448.73 217.743 449.256 216.823 449.933 216.065C450.61 215.308 451.423 214.731 452.315 214.376L452.354 187.901L462.285 195.494L460.726 219.471C461.143 221.24 460.984 223.125 460.279 224.768C459.574 226.411 458.372 227.698 456.9 228.385C455.429 229.073 453.79 229.112 452.294 228.497C450.799 227.882 449.551 226.655 448.786 225.048Z" fill="#9E616A"/>
<path d="M449.704 107.905L454.141 102.965L457.401 105.683C457.401 105.683 460.608 110.128 463.173 123.464C465.739 136.799 463.173 210.145 463.173 210.145L449.063 207.923L450.987 169.397L445.215 136.799L449.704 107.905Z" fill="#E6E6E6"/>
<path d="M456.256 104.17L441.308 95.9221L431.159 85.0482L412.652 84.8882L406.682 93.8532L390.921 100.038L393.548 162.815L391.757 167.642C391.757 167.642 393.004 168.944 393.575 169.673C394.145 170.401 392.787 176.497 392.787 176.497L392.021 183.13L394.145 184.883L391.384 188.65L390.699 194.587C390.699 194.587 438.886 180.752 447.99 203.671C448.472 204.882 447.287 193.047 447.287 193.047L446.102 184.384L447.278 176.607L449.069 174.539L446.065 171.069L447.99 154.605L456.256 104.17Z" fill="#3F3D56"/>
<path d="M117.256 243.343C117.627 242.255 117.787 241.086 117.725 239.919C117.663 238.752 117.379 237.614 116.895 236.587C116.411 235.56 115.738 234.668 114.924 233.974C114.109 233.28 113.172 232.8 112.18 232.57L108.859 204.403L99.231 214.125L103.86 239.382C103.635 241.334 104.038 243.313 104.992 244.945C105.945 246.576 107.384 247.747 109.035 248.236C110.687 248.724 112.436 248.495 113.951 247.594C115.466 246.692 116.642 245.179 117.256 243.343Z" fill="#FFB8B8"/>
<path d="M79.5349 118.565L76.9252 119.143L75.3478 121.437C75.3478 121.437 72.7959 132.999 75.7029 141.079C78.61 149.16 99.6283 230.383 99.6283 230.383L114.725 230.888L102.965 165.034L79.5349 118.565Z" fill="#3F3D56"/>
<path d="M139.051 239.211C138.355 238.361 137.83 237.346 137.511 236.236C137.192 235.126 137.088 233.949 137.205 232.787C137.323 231.626 137.659 230.508 138.191 229.513C138.723 228.518 139.438 227.67 140.284 227.028L134.274 199.463L146.346 204.337L150.202 229.766C151.041 231.48 151.307 233.49 150.948 235.415C150.59 237.34 149.633 239.046 148.258 240.21C146.884 241.374 145.187 241.916 143.49 241.732C141.793 241.547 140.214 240.651 139.051 239.211Z" fill="#FFB8B8"/>
<path d="M133.777 107.184L136.384 106.596L138.589 108.045C138.589 108.045 144.689 117.675 144.599 126.425C144.51 135.174 151.225 219.593 151.225 219.593L137.38 226.565L127.036 160.394L133.777 107.184Z" fill="#3F3D56"/>
</g>
<defs>
<clipPath id="clip0_744_135">
<rect width="521" height="407" fill="white"/>
</clipPath>
</defs>
</svg>
